<svg width="18" height="18" viewBox="0 0 18 18" fill="none" xmlns="http://www.w3.org/2000/svg">
  <g clip-path="url(#clip0_1310_34247)">
    <g clip-path="url(#clip1_1310_34247)">
      <path
        d="M15 13.5L12.75 13.5M12.75 13.5L10.5 13.5M12.75 13.5V11.25M12.75 13.5V15.75M8.25 15.75H3C3 12.8505 5.35051 10.5 8.25 10.5C8.77123 10.5 9.27472 10.576 9.75 10.7174M11.25 5.25C11.25 6.90685 9.90685 8.25 8.25 8.25C6.59315 8.25 5.25 6.90685 5.25 5.25C5.25 3.59315 6.59315 2.25 8.25 2.25C9.90685 2.25 11.25 3.59315 11.25 5.25Z"
        stroke="currentcolor"
        stroke-width="1.2"
        stroke-linecap="round"
        stroke-linejoin="round"
      />
    </g>
  </g>
  <defs>
    <clipPath id="clip0_1310_34247">
      <rect width="18" height="18" fill="white" />
    </clipPath>
    <clipPath id="clip1_1310_34247">
      <rect width="18" height="18" fill="white" />
    </clipPath>
  </defs>
</svg>
