<svg width="24" height="24" viewBox="0 0 24 24" fill="none" xmlns="http://www.w3.org/2000/svg">
  <path fill-rule="evenodd" clip-rule="evenodd"
    d="M10.529 2.28312C10.9782 2.03017 11.4852 1.89728 12.0008 1.89728C12.5164 1.89728 13.0233 2.03017 13.4725 2.28312C13.9218 2.53607 14.2983 2.90055 14.5658 3.34139L14.5686 3.34614L23.0386 17.4862L23.0467 17.5C23.3087 17.9536 23.4473 18.4679 23.4488 18.9917C23.4502 19.5156 23.3145 20.0307 23.0551 20.4858C22.7957 20.9408 22.4217 21.3201 21.9702 21.5857C21.5187 21.8514 21.0055 21.9942 20.4817 22L20.4708 22.0001L3.51976 22C2.99596 21.9943 2.48279 21.8514 2.03132 21.5857C1.57985 21.3201 1.20581 20.9408 0.946403 20.4858C0.686999 20.0307 0.551279 19.5156 0.552746 18.9917C0.554213 18.4679 0.692815 17.9536 0.954763 17.5L0.962886 17.4862L9.43289 3.34615L10.2907 3.86001L9.43575 3.34139C9.70316 2.90055 10.0797 2.53607 10.529 2.28312ZM11.147 4.37666L2.68344 18.5058C2.59826 18.6556 2.55322 18.8249 2.55274 18.9973C2.55225 19.172 2.59749 19.3436 2.68396 19.4953C2.77043 19.647 2.89511 19.7735 3.0456 19.862C3.19477 19.9498 3.36415 19.9973 3.53715 20H20.4644C20.6374 19.9973 20.8067 19.9498 20.9559 19.862C21.1064 19.7735 21.2311 19.647 21.3175 19.4953C21.404 19.3436 21.4493 19.172 21.4488 18.9973C21.4483 18.825 21.4033 18.6557 21.3181 18.5059L12.8558 4.37865C12.8554 4.37799 12.8549 4.37732 12.8545 4.37666C12.7655 4.23061 12.6404 4.10983 12.4914 4.02589C12.3416 3.94157 12.1726 3.89728 12.0008 3.89728C11.8289 3.89728 11.6599 3.94157 11.5102 4.02589C11.3611 4.10983 11.236 4.23061 11.147 4.37666Z"
    fill="#E53E3E" />
  <path fill-rule="evenodd" clip-rule="evenodd"
    d="M12 8C12.5523 8 13 8.44772 13 9V13C13 13.5523 12.5523 14 12 14C11.4477 14 11 13.5523 11 13V9C11 8.44772 11.4477 8 12 8Z"
    fill="#E53E3E" />
  <path fill-rule="evenodd" clip-rule="evenodd"
    d="M11 17C11 16.4477 11.4477 16 12 16H12.01C12.5623 16 13.01 16.4477 13.01 17C13.01 17.5523 12.5623 18 12.01 18H12C11.4477 18 11 17.5523 11 17Z"
    fill="#E53E3E" />
</svg>
