<svg width="24" height="24" viewBox="0 0 24 24" fill="none" xmlns="http://www.w3.org/2000/svg">
  <path
    fill-rule="evenodd"
    clip-rule="evenodd"
    d="M6.29289 17.7071C5.90237 17.3166 5.90237 16.6834 6.29289 16.2929L16.2929 6.29289C16.6834 5.90237 17.3166 5.90237 17.7071 6.29289C18.0976 6.68342 18.0976 7.31658 17.7071 7.70711L7.70711 17.7071C7.31658 18.0976 6.68342 18.0976 6.29289 17.7071Z"
    fill="currentcolor"
  />
  <path
    fill-rule="evenodd"
    clip-rule="evenodd"
    d="M17 18C16.4477 18 16 17.5523 16 17V8L7 8C6.44771 8 6 7.55229 6 7C6 6.44771 6.44771 6 7 6L17 6C17.5523 6 18 6.44771 18 7V17C18 17.5523 17.5523 18 17 18Z"
    fill="currentcolor"
  />
</svg>
