<svg width="24" height="24" viewBox="0 0 24 24" fill="none" xmlns="http://www.w3.org/2000/svg">
  <path fill-rule="evenodd" clip-rule="evenodd"
    d="M10.5021 1.40264C10.9577 1.14014 11.4742 1.00195 12 1.00195C12.5258 1.00195 13.0424 1.14015 13.4979 1.40267C13.4986 1.40307 13.4993 1.40348 13.5 1.40388L20.5 5.40387C20.9556 5.66692 21.334 6.04515 21.5973 6.50062C21.8606 6.95609 21.9995 7.47279 22 7.99888V16.0009C21.9995 16.527 21.8606 17.0437 21.5973 17.4992C21.334 17.9547 20.9556 18.3329 20.5 18.5959L20.4961 18.5981L13.5 22.5959C13.4994 22.5963 13.4988 22.5966 13.4982 22.597C13.0426 22.8596 12.5259 22.9979 12 22.9979C11.4741 22.9979 10.9575 22.8596 10.5019 22.597C10.5012 22.5966 10.5006 22.5963 10.5 22.5959L3.50386 18.5981L3.5 18.5959C3.04439 18.3329 2.66597 17.9547 2.40269 17.4992C2.13941 17.0437 2.00054 16.527 2 16.0009V7.99888C2.00054 7.47279 2.13941 6.95609 2.40269 6.50062C2.66597 6.04515 3.04439 5.66692 3.5 5.40388L3.50386 5.40165L10.5021 1.40264ZM12 3.00195C11.8245 3.00195 11.652 3.04816 11.5 3.13593L11.4961 3.13815L4.5 7.13593C4.49947 7.13623 4.49895 7.13654 4.49842 7.13684C4.34726 7.22448 4.22169 7.35021 4.13423 7.50151C4.04654 7.65321 4.00025 7.82528 4 8.0005V15.9993C4.00025 16.1745 4.04654 16.3466 4.13423 16.4983C4.22169 16.6496 4.34726 16.7753 4.49842 16.863C4.49895 16.8633 4.49947 16.8636 4.5 16.8639L11.5 20.8639C11.652 20.9516 11.8245 20.9979 12 20.9979C12.1755 20.9979 12.348 20.9516 12.5 20.8639L12.5039 20.8617L19.5 16.8639C19.5005 16.8636 19.5011 16.8633 19.5016 16.863C19.6527 16.7753 19.7783 16.6496 19.8658 16.4983C19.9535 16.3465 19.9998 16.1742 20 15.9989V8.00093C19.9998 7.82556 19.9535 7.65333 19.8658 7.50151C19.7783 7.35021 19.6527 7.22449 19.5016 7.13685C19.5011 7.13654 19.5005 7.13623 19.5 7.13593L12.5 3.13594C12.348 3.04817 12.1755 3.00195 12 3.00195Z"
    fill="currentColor" />
  <path fill-rule="evenodd" clip-rule="evenodd"
    d="M6.6343 3.70985C6.9106 3.23165 7.52224 3.06797 8.00044 3.34426L12.0002 5.65521L15.9999 3.34426C16.4781 3.06797 17.0897 3.23165 17.366 3.70985C17.6423 4.18805 17.4786 4.7997 17.0004 5.07599L12.5004 7.67599C12.1909 7.85484 11.8094 7.85484 11.4999 7.67599L6.99989 5.07599C6.52169 4.7997 6.35801 4.18805 6.6343 3.70985Z"
    fill="currentColor" />
  <path fill-rule="evenodd" clip-rule="evenodd"
    d="M2.1343 11.4999C2.4106 11.0217 3.02224 10.858 3.50044 11.1343L8.00044 13.7343C8.30969 13.913 8.50017 14.243 8.50017 14.6002V19.7902C8.50017 20.3425 8.05245 20.7902 7.50017 20.7902C6.94788 20.7902 6.50017 20.3425 6.50017 19.7902V15.1773L2.49989 12.866C2.02168 12.5897 1.85801 11.9781 2.1343 11.4999Z"
    fill="currentColor" />
  <path fill-rule="evenodd" clip-rule="evenodd"
    d="M21.8659 11.4999C22.1422 11.9781 21.9785 12.5897 21.5003 12.866L17.5 15.1773V19.7902C17.5 20.3425 17.0523 20.7902 16.5 20.7902C15.9477 20.7902 15.5 20.3425 15.5 19.7902V14.6002C15.5 14.243 15.6905 13.913 15.9997 13.7343L20.4997 11.1343C20.9779 10.858 21.5896 11.0217 21.8659 11.4999Z"
    fill="currentColor" />
  <path fill-rule="evenodd" clip-rule="evenodd"
    d="M2.40409 6.4594C2.68063 5.98134 3.29236 5.81798 3.77042 6.09452L11.9997 10.8549L20.229 6.09452C20.707 5.81798 21.3188 5.98134 21.5953 6.4594C21.8718 6.93747 21.7085 7.54919 21.2304 7.82573L12.5004 12.8757C12.1907 13.0549 11.8087 13.0549 11.499 12.8757L2.76897 7.82573C2.29091 7.54919 2.12755 6.93747 2.40409 6.4594Z"
    fill="currentColor" />
  <path fill-rule="evenodd" clip-rule="evenodd"
    d="M12 11C12.5523 11 13 11.4477 13 12V22.08C13 22.6323 12.5523 23.08 12 23.08C11.4477 23.08 11 22.6323 11 22.08V12C11 11.4477 11.4477 11 12 11Z"
    fill="currentColor" />
</svg>
