<svg width="22" height="22" viewBox="0 0 22 22" fill="none" xmlns="http://www.w3.org/2000/svg">
  <path
    fill-rule="evenodd"
    clip-rule="evenodd"
    d="M3.55546 1.7222C4.07118 1.20648 4.77065 0.916748 5.5 0.916748H12.8333C13.0764 0.916748 13.3096 1.01333 13.4815 1.18523L18.9815 6.68523C19.1534 6.85714 19.25 7.0903 19.25 7.33342V18.3334C19.25 19.0628 18.9603 19.7622 18.4445 20.278C17.9288 20.7937 17.2293 21.0834 16.5 21.0834H5.5C4.77065 21.0834 4.07118 20.7937 3.55546 20.278C3.03973 19.7622 2.75 19.0628 2.75 18.3334V3.66675C2.75 2.9374 3.03973 2.23793 3.55546 1.7222ZM5.5 2.75008C5.25688 2.75008 5.02373 2.84666 4.85182 3.01857C4.67991 3.19048 4.58333 3.42363 4.58333 3.66675V18.3334C4.58333 18.5765 4.67991 18.8097 4.85182 18.9816C5.02373 19.1535 5.25689 19.2501 5.5 19.2501H16.5C16.7431 19.2501 16.9763 19.1535 17.1482 18.9816C17.3201 18.8097 17.4167 18.5765 17.4167 18.3334V7.71311L12.4536 2.75008H5.5Z"
    fill="currentcolor"
  />
  <path
    fill-rule="evenodd"
    clip-rule="evenodd"
    d="M12.8337 0.916748C13.3399 0.916748 13.7503 1.32715 13.7503 1.83341V6.41675H18.3337C18.8399 6.41675 19.2503 6.82715 19.2503 7.33342C19.2503 7.83968 18.8399 8.25008 18.3337 8.25008H12.8337C12.3274 8.25008 11.917 7.83968 11.917 7.33342V1.83341C11.917 1.32715 12.3274 0.916748 12.8337 0.916748Z"
    fill="currentcolor"
  />
  <path
    fill-rule="evenodd"
    clip-rule="evenodd"
    d="M6.41699 11.9167C6.41699 11.4104 6.8274 11 7.33366 11H14.667C15.1733 11 15.5837 11.4104 15.5837 11.9167C15.5837 12.4229 15.1733 12.8333 14.667 12.8333H7.33366C6.8274 12.8333 6.41699 12.4229 6.41699 11.9167Z"
    fill="currentcolor"
  />
  <path
    fill-rule="evenodd"
    clip-rule="evenodd"
    d="M6.41699 15.5834C6.41699 15.0772 6.8274 14.6667 7.33366 14.6667H14.667C15.1733 14.6667 15.5837 15.0772 15.5837 15.5834C15.5837 16.0897 15.1733 16.5001 14.667 16.5001H7.33366C6.8274 16.5001 6.41699 16.0897 6.41699 15.5834Z"
    fill="currentcolor"
  />
  <path
    fill-rule="evenodd"
    clip-rule="evenodd"
    d="M6.41699 8.24992C6.41699 7.74366 6.8274 7.33325 7.33366 7.33325H9.16699C9.67325 7.33325 10.0837 7.74366 10.0837 8.24992C10.0837 8.75618 9.67325 9.16659 9.16699 9.16659H7.33366C6.8274 9.16659 6.41699 8.75618 6.41699 8.24992Z"
    fill="currentcolor"
  />
</svg>
