<svg width="18" height="18" viewBox="0 0 18 18" fill="none" xmlns="http://www.w3.org/2000/svg">
  <path
    fill-rule="evenodd"
    clip-rule="evenodd"
    d="M8.25 7.5C7.83579 7.5 7.5 7.83579 7.5 8.25V15C7.5 15.4142 7.83579 15.75 8.25 15.75H15C15.4142 15.75 15.75 15.4142 15.75 15V8.25C15.75 7.83579 15.4142 7.5 15 7.5H8.25ZM6 8.25C6 7.00736 7.00736 6 8.25 6H15C16.2426 6 17.25 7.00736 17.25 8.25V15C17.25 16.2426 16.2426 17.25 15 17.25H8.25C7.00736 17.25 6 16.2426 6 15V8.25Z"
    fill="currentcolor"
  />
  <path
    fill-rule="evenodd"
    clip-rule="evenodd"
    d="M3 2.25C2.80109 2.25 2.61032 2.32902 2.46967 2.46967C2.32902 2.61032 2.25 2.80109 2.25 3V9.75C2.25 9.94891 2.32902 10.1397 2.46967 10.2803C2.61032 10.421 2.80109 10.5 3 10.5H3.75C4.16421 10.5 4.5 10.8358 4.5 11.25C4.5 11.6642 4.16421 12 3.75 12H3C2.40326 12 1.83097 11.7629 1.40901 11.341C0.987053 10.919 0.75 10.3467 0.75 9.75V3C0.75 2.40326 0.987053 1.83097 1.40901 1.40901C1.83097 0.987053 2.40326 0.75 3 0.75H9.75C10.3467 0.75 10.919 0.987053 11.341 1.40901C11.7629 1.83097 12 2.40326 12 3V3.75C12 4.16421 11.6642 4.5 11.25 4.5C10.8358 4.5 10.5 4.16421 10.5 3.75V3C10.5 2.80109 10.421 2.61032 10.2803 2.46967C10.1397 2.32902 9.94891 2.25 9.75 2.25H3Z"
    fill="currentcolor"
  />
</svg>
