<svg width="22" height="22" viewBox="0 0 22 22" fill="none" xmlns="http://www.w3.org/2000/svg">
  <path fill-rule="evenodd" clip-rule="evenodd"
    d="M1.72147 3.55546C2.2372 3.03973 2.93667 2.75 3.66602 2.75H10.0827C10.5889 2.75 10.9993 3.16041 10.9993 3.66667C10.9993 4.17293 10.5889 4.58333 10.0827 4.58333H3.66602C3.4229 4.58333 3.18974 4.67991 3.01783 4.85182C2.84593 5.02373 2.74935 5.25688 2.74935 5.5V18.3333C2.74935 18.5764 2.84593 18.8096 3.01783 18.9815C3.18974 19.1534 3.4229 19.25 3.66602 19.25H16.4993C16.7425 19.25 16.9756 19.1534 17.1475 18.9815C17.3194 18.8096 17.416 18.5764 17.416 18.3333V11.9167C17.416 11.4104 17.8264 11 18.3327 11C18.8389 11 19.2493 11.4104 19.2493 11.9167V18.3333C19.2493 19.0627 18.9596 19.7622 18.4439 20.2779C17.9282 20.7936 17.2287 21.0833 16.4993 21.0833H3.66602C2.93667 21.0833 2.2372 20.7936 1.72147 20.2779C1.20575 19.7622 0.916016 19.0627 0.916016 18.3333V5.5C0.916016 4.77065 1.20575 4.07118 1.72147 3.55546Z"
    fill="currentColor" />
  <path fill-rule="evenodd" clip-rule="evenodd"
    d="M18.3327 2.63881C18.0601 2.63881 17.7986 2.74711 17.6059 2.93987L9.07709 11.4687L8.59254 13.4069L10.5307 12.9223L19.0595 4.39351C19.2523 4.20075 19.3606 3.9393 19.3606 3.66669C19.3606 3.39408 19.2523 3.13264 19.0595 2.93987C18.8668 2.74711 18.6053 2.63881 18.3327 2.63881ZM16.3095 1.64351C16.8461 1.10693 17.5739 0.805481 18.3327 0.805481C19.0915 0.805481 19.8193 1.10693 20.3559 1.64351C20.8925 2.18009 21.1939 2.90785 21.1939 3.66669C21.1939 4.42553 20.8925 5.15329 20.3559 5.68987L11.6475 14.3982C11.5301 14.5157 11.3829 14.599 11.2217 14.6393L7.55503 15.556C7.24265 15.6341 6.9122 15.5426 6.68452 15.3149C6.45684 15.0872 6.36531 14.7567 6.4434 14.4444L7.36007 10.7777C7.40037 10.6165 7.48371 10.4693 7.60119 10.3518L16.3095 1.64351Z"
    fill="currentColor" />
</svg>
