<svg width="22" height="22" viewBox="0 0 22 22" fill="none" xmlns="http://www.w3.org/2000/svg">
  <path fill-rule="evenodd" clip-rule="evenodd"
    d="M4.58398 6.41665C4.34087 6.41665 4.10771 6.51322 3.9358 6.68513C3.76389 6.85704 3.66732 7.0902 3.66732 7.33331V17.4166C3.66732 17.6598 3.76389 17.8929 3.9358 18.0648C4.10771 18.2367 4.34087 18.3333 4.58398 18.3333H14.6673C14.9104 18.3333 15.1436 18.2367 15.3155 18.0648C15.4874 17.8929 15.584 17.6598 15.584 17.4166V11.9166C15.584 11.4104 15.9944 11 16.5007 11C17.0069 11 17.4173 11.4104 17.4173 11.9166V17.4166C17.4173 18.146 17.1276 18.8455 16.6119 19.3612C16.0961 19.8769 15.3967 20.1666 14.6673 20.1666H4.58398C3.85464 20.1666 3.15517 19.8769 2.63944 19.3612C2.12372 18.8455 1.83398 18.146 1.83398 17.4166V7.33331C1.83398 6.60397 2.12372 5.90449 2.63944 5.38877C3.15517 4.87304 3.85464 4.58331 4.58398 4.58331H10.084C10.5902 4.58331 11.0007 4.99372 11.0007 5.49998C11.0007 6.00624 10.5902 6.41665 10.084 6.41665H4.58398Z"
    fill="currentColor" />
  <path fill-rule="evenodd" clip-rule="evenodd"
    d="M12.834 2.74998C12.834 2.24372 13.2444 1.83331 13.7507 1.83331H19.2507C19.7569 1.83331 20.1673 2.24372 20.1673 2.74998V8.24998C20.1673 8.75624 19.7569 9.16665 19.2507 9.16665C18.7444 9.16665 18.334 8.75624 18.334 8.24998V3.66665H13.7507C13.2444 3.66665 12.834 3.25624 12.834 2.74998Z"
    fill="currentColor" />
  <path fill-rule="evenodd" clip-rule="evenodd"
    d="M19.8982 2.1018C20.2562 2.45978 20.2562 3.04018 19.8982 3.39816L9.81485 13.4815C9.45687 13.8395 8.87647 13.8395 8.51849 13.4815C8.1605 13.1235 8.1605 12.5431 8.51849 12.1851L18.6018 2.1018C18.9598 1.74382 19.5402 1.74382 19.8982 2.1018Z"
    fill="currentColor" />
</svg>
