<svg width="25" height="18" viewBox="0 0 25 18" fill="none" xmlns="http://www.w3.org/2000/svg">
  <g clip-path="url(#clip0_415_12328)">
    <path
      d="M0.280451 14V3.81818H7.02193V5.59304H2.43315V8.01918H6.57449V9.79403H2.43315V14H0.280451ZM8.95339 14H6.64657L10.1615 3.81818H12.9356L16.4456 14H14.1388L11.5883 6.14489H11.5088L8.95339 14ZM8.80922 9.99787H14.2581V11.6783H8.80922V9.99787ZM17.6114 14V12.4489L21.2357 9.09304C21.5439 8.79474 21.8025 8.52628 22.0113 8.28764C22.2234 8.04901 22.3841 7.81534 22.4935 7.58665C22.6029 7.35464 22.6576 7.1044 22.6576 6.83594C22.6576 6.53764 22.5896 6.28078 22.4537 6.06534C22.3179 5.84659 22.1323 5.67921 21.8969 5.56321C21.6616 5.44389 21.3948 5.38423 21.0965 5.38423C20.7849 5.38423 20.5132 5.44721 20.2812 5.57315C20.0492 5.6991 19.8702 5.87973 19.7442 6.11506C19.6183 6.35038 19.5553 6.63044 19.5553 6.95526H17.512C17.512 6.28906 17.6628 5.7107 17.9644 5.22017C18.266 4.72964 18.6886 4.35014 19.2322 4.08168C19.7757 3.81321 20.4021 3.67898 21.1114 3.67898C21.8406 3.67898 22.4753 3.80824 23.0155 4.06676C23.5591 4.32197 23.9817 4.67661 24.2833 5.13068C24.5849 5.58475 24.7357 6.10511 24.7357 6.69176C24.7357 7.07623 24.6595 7.45573 24.507 7.83026C24.3579 8.20478 24.0911 8.62074 23.7066 9.07812C23.3221 9.5322 22.7802 10.0774 22.0809 10.7138L20.5944 12.1705V12.2401H24.8699V14H17.6114Z"
      fill="currentcolor"
    />
  </g>
  <defs>
    <clipPath id="clip0_415_12328">
      <rect width="25" height="18" fill="white" />
    </clipPath>
  </defs>
</svg>
