<svg width="48" height="48" viewBox="0 0 48 48" fill="none" xmlns="http://www.w3.org/2000/svg">
  <circle cx="24" cy="24" r="24" fill="white" />
  <path fill-rule="evenodd" clip-rule="evenodd"
    d="M38 24.0856C38 16.3063 31.732 10 24 10C16.268 10 10 16.3063 10 24.0856C10 31.1161 15.1196 36.9434 21.8125 38V28.1572H18.2578V24.0856H21.8125V20.9824C21.8125 17.4522 23.9026 15.5022 27.1005 15.5022C28.6322 15.5022 30.2344 15.7773 30.2344 15.7773V19.2437H28.469C26.7299 19.2437 26.1875 20.3294 26.1875 21.4434V24.0856H30.0703L29.4496 28.1572H26.1875V38C32.8804 36.9434 38 31.1161 38 24.0856Z"
    fill="#1977F2" />
</svg>
