<svg width="19" height="18" viewBox="0 0 19 18" fill="none" xmlns="http://www.w3.org/2000/svg">
  <path
    fill-rule="evenodd"
    clip-rule="evenodd"
    d="M2.75 10.5C3.16421 10.5 3.5 10.8358 3.5 11.25V14.25C3.5 14.4489 3.57902 14.6397 3.71967 14.7803C3.86032 14.921 4.05109 15 4.25 15H14.75C14.9489 15 15.1397 14.921 15.2803 14.7803C15.421 14.6397 15.5 14.4489 15.5 14.25V11.25C15.5 10.8358 15.8358 10.5 16.25 10.5C16.6642 10.5 17 10.8358 17 11.25V14.25C17 14.8467 16.7629 15.419 16.341 15.841C15.919 16.2629 15.3467 16.5 14.75 16.5H4.25C3.65326 16.5 3.08097 16.2629 2.65901 15.841C2.23705 15.419 2 14.8467 2 14.25V11.25C2 10.8358 2.33579 10.5 2.75 10.5Z"
    fill="currentColor"
  />
  <path
    fill-rule="evenodd"
    clip-rule="evenodd"
    d="M8.96967 1.71967C9.26256 1.42678 9.73744 1.42678 10.0303 1.71967L13.7803 5.46967C14.0732 5.76256 14.0732 6.23744 13.7803 6.53033C13.4874 6.82322 13.0126 6.82322 12.7197 6.53033L9.5 3.31066L6.28033 6.53033C5.98744 6.82322 5.51256 6.82322 5.21967 6.53033C4.92678 6.23744 4.92678 5.76256 5.21967 5.46967L8.96967 1.71967Z"
    fill="currentColor"
  />
  <path
    fill-rule="evenodd"
    clip-rule="evenodd"
    d="M9.5 1.5C9.91421 1.5 10.25 1.83579 10.25 2.25V11.25C10.25 11.6642 9.91421 12 9.5 12C9.08579 12 8.75 11.6642 8.75 11.25V2.25C8.75 1.83579 9.08579 1.5 9.5 1.5Z"
    fill="currentColor"
  />
</svg>
