<svg width="18" height="18" viewBox="0 0 18 18" fill="none" xmlns="http://www.w3.org/2000/svg">
  <path
    fill-rule="evenodd"
    clip-rule="evenodd"
    d="M0.819672 1.93434C0.942565 1.66947 1.20802 1.5 1.50001 1.5H16.5C16.792 1.5 17.0575 1.66947 17.1803 1.93434C17.3032 2.19922 17.2612 2.51134 17.0727 2.73429L11.25 9.61961V15.75C11.25 16.0099 11.1154 16.2513 10.8943 16.388C10.6732 16.5246 10.3971 16.5371 10.1646 16.4208L7.1646 14.9208C6.91051 14.7938 6.75001 14.5341 6.75001 14.25V9.61961L0.927333 2.73429C0.738784 2.51134 0.696778 2.19922 0.819672 1.93434ZM3.11649 3L8.07269 8.86071C8.18718 8.9961 8.25001 9.16768 8.25001 9.345V13.7865L9.75001 14.5365V9.345C9.75001 9.16768 9.81283 8.9961 9.92733 8.86071L14.8835 3H3.11649Z"
    fill="currentcolor"
  />
</svg>
