<svg width="48" height="48" viewBox="0 0 48 48" fill="none" xmlns="http://www.w3.org/2000/svg">
  <path fill-rule="evenodd" clip-rule="evenodd"
    d="M35.5196 24.2724C35.5196 23.4215 35.4432 22.6033 35.3014 21.8179H23.9998V26.4596H30.4578C30.1797 27.9596 29.3342 29.2305 28.0633 30.0814V33.0922H31.9414C34.2105 31.0032 35.5196 27.9269 35.5196 24.2724V24.2724Z"
    fill="#4285F4" />
  <path fill-rule="evenodd" clip-rule="evenodd"
    d="M24.0008 36.0001C27.2408 36.0001 29.9571 34.9256 31.9425 33.0929L28.0644 30.082C26.9899 30.802 25.6153 31.2275 24.0008 31.2275C20.8754 31.2275 18.23 29.1166 17.2864 26.2803H13.2773V29.3893C15.2519 33.3111 19.31 36.0001 24.0008 36.0001V36.0001Z"
    fill="#34A853" />
  <path fill-rule="evenodd" clip-rule="evenodd"
    d="M17.2854 26.2798C17.0454 25.5598 16.909 24.7907 16.909 23.9998C16.909 23.2089 17.0454 22.4399 17.2854 21.7199V18.6108H13.2763C12.4636 20.2308 12 22.0635 12 23.9998C12 25.9362 12.4636 27.7689 13.2763 29.3889L17.2854 26.2798V26.2798Z"
    fill="#FBBC05" />
  <path fill-rule="evenodd" clip-rule="evenodd"
    d="M24.0008 16.7727C25.7626 16.7727 27.3444 17.3781 28.588 18.5672L32.0298 15.1254C29.9516 13.1891 27.2353 12 24.0008 12C19.31 12 15.2519 14.689 13.2773 18.6108L17.2864 21.7198C18.23 18.8835 20.8754 16.7727 24.0008 16.7727V16.7727Z"
    fill="#EA4335" />
</svg>
