<svg width="22" height="22" viewBox="0 0 22 22" fill="none" xmlns="http://www.w3.org/2000/svg">
  <path
    fill-rule="evenodd"
    clip-rule="evenodd"
    d="M16.2315 5.76849C16.5895 6.12647 16.5895 6.70687 16.2315 7.06485L7.06485 16.2315C6.70687 16.5895 6.12647 16.5895 5.76849 16.2315C5.4105 15.8735 5.4105 15.2931 5.76849 14.9352L14.9352 5.76849C15.2931 5.4105 15.8735 5.4105 16.2315 5.76849Z"
    fill="currentcolor"
  />
  <path
    fill-rule="evenodd"
    clip-rule="evenodd"
    d="M6.41667 5.5C6.92293 5.5 7.33333 5.91041 7.33333 6.41667V14.6667H15.5833C16.0896 14.6667 16.5 15.0771 16.5 15.5833C16.5 16.0896 16.0896 16.5 15.5833 16.5H6.41667C5.91041 16.5 5.5 16.0896 5.5 15.5833V6.41667C5.5 5.91041 5.91041 5.5 6.41667 5.5Z"
    fill="currentcolor"
  />
</svg>
