<svg width="48" height="48" viewBox="0 0 48 48" fill="none" xmlns="http://www.w3.org/2000/svg">
  <circle cx="24" cy="24" r="24" fill="white" />
  <g clip-path="url(#clip0_1104_48796)">
    <g clip-path="url(#clip1_1104_48796)">
      <g clip-path="url(#clip2_1104_48796)">
        <path
          d="M28.6667 21.6668H29.8334V24.0002H25.1667V17.0002H27.5001L24.0001 12.3335L20.5001 17.0002H22.8334V26.3335H18.1667V23.677C18.8621 23.2722 19.3334 22.5278 19.3334 21.6668C19.3334 21.048 19.0876 20.4545 18.65 20.0169C18.2124 19.5793 17.6189 19.3335 17.0001 19.3335C16.3812 19.3335 15.7878 19.5793 15.3502 20.0169C14.9126 20.4545 14.6667 21.048 14.6667 21.6668C14.6667 22.5278 15.1381 23.2722 15.8334 23.677V26.3335C15.8334 27.6203 16.8799 28.6668 18.1667 28.6668H22.8334V31.3233C22.4795 31.5263 22.1853 31.819 21.9804 32.1719C21.7756 32.5248 21.6674 32.9255 21.6667 33.3335C21.6667 33.9523 21.9126 34.5458 22.3502 34.9834C22.7878 35.421 23.3812 35.6668 24.0001 35.6668C24.6189 35.6668 25.2124 35.421 25.65 34.9834C26.0876 34.5458 26.3334 33.9523 26.3334 33.3335C26.3334 32.4725 25.8621 31.7282 25.1667 31.3233V26.3335H29.8334C31.1202 26.3335 32.1667 25.287 32.1667 24.0002V21.6668H33.3334V17.0002H28.6667V21.6668Z"
          fill="#4A5568" />
      </g>
    </g>
  </g>
  <defs>
    <clipPath id="clip0_1104_48796">
      <rect width="28" height="28" fill="white" transform="translate(10 10)" />
    </clipPath>
    <clipPath id="clip1_1104_48796">
      <rect width="28" height="28" fill="white" transform="translate(10 10)" />
    </clipPath>
    <clipPath id="clip2_1104_48796">
      <rect width="28" height="28" fill="white" transform="translate(10 10)" />
    </clipPath>
  </defs>
</svg>
