<svg width="24" height="24" viewBox="0 0 24 24" fill="none" xmlns="http://www.w3.org/2000/svg">
  <path fill-rule="evenodd" clip-rule="evenodd"
    d="M19 4.00049C19.2652 4.00049 19.5196 4.10584 19.7071 4.29338C19.8946 4.48092 20 4.73527 20 5.00049V19.0005C20 19.2657 19.8946 19.5201 19.7071 19.7076C19.5196 19.8951 19.2652 20.0005 19 20.0005H15C14.4477 20.0005 14 20.4482 14 21.0005C14 21.5528 14.4477 22.0005 15 22.0005H19C19.7957 22.0005 20.5587 21.6844 21.1213 21.1218C21.6839 20.5592 22 19.7961 22 19.0005V5.00049C22 4.20484 21.6839 3.44178 21.1213 2.87917C20.5587 2.31656 19.7956 2.00049 19 2.00049H15C14.4477 2.00049 14 2.4482 14 3.00049C14 3.55277 14.4477 4.00049 15 4.00049H19Z"
    fill="currentColor" />
  <path fill-rule="evenodd" clip-rule="evenodd"
    d="M8.70711 6.29338C8.31658 5.90286 7.68342 5.90286 7.29289 6.29338L2.29289 11.2934C1.90237 11.6839 1.90237 12.3171 2.29289 12.7076L7.29289 17.7076C7.68342 18.0981 8.31658 18.0981 8.70711 17.7076C9.09763 17.3171 9.09763 16.6839 8.70711 16.2934L4.41421 12.0005L8.70711 7.7076C9.09763 7.31707 9.09763 6.68391 8.70711 6.29338Z"
    fill="currentColor" />
  <path fill-rule="evenodd" clip-rule="evenodd"
    d="M16 12.0005C16 11.4482 15.5523 11.0005 15 11.0005H3C2.44771 11.0005 2 11.4482 2 12.0005C2 12.5528 2.44771 13.0005 3 13.0005H15C15.5523 13.0005 16 12.5528 16 12.0005Z"
    fill="currentColor" />
</svg>
