<svg width="25" height="24" viewBox="0 0 25 24" fill="none" xmlns="http://www.w3.org/2000/svg">
  <path
    d="M4.49867 21.0006C4.57838 21.0103 4.65896 21.0103 4.73867 21.0006L8.73867 20.0006C8.91612 19.9585 9.07865 19.8685 9.20867 19.7406L21.4987 7.41064C21.8712 7.03591 22.0803 6.52901 22.0803 6.00064C22.0803 5.47226 21.8712 4.96536 21.4987 4.59064L19.9187 3.00064C19.7329 2.81468 19.5123 2.66716 19.2696 2.56652C19.0268 2.46587 18.7665 2.41406 18.5037 2.41406C18.2408 2.41406 17.9806 2.46587 17.7378 2.56652C17.495 2.66716 17.2744 2.81468 17.0887 3.00064L4.79867 15.2906C4.66946 15.4213 4.57642 15.5832 4.52867 15.7606L3.52867 19.7606C3.49273 19.89 3.48322 20.0253 3.5007 20.1585C3.51818 20.2916 3.5623 20.4199 3.63043 20.5356C3.69856 20.6513 3.7893 20.7521 3.89724 20.832C4.00517 20.9119 4.12809 20.9693 4.25867 21.0006C4.33838 21.0103 4.41896 21.0103 4.49867 21.0006ZM18.4987 4.41064L20.0887 6.00064L18.4987 7.59064L16.9187 6.00064L18.4987 4.41064ZM6.40867 16.5106L15.4987 7.41064L17.0887 9.00064L7.98867 18.1006L5.87867 18.6206L6.40867 16.5106Z"
    fill="currentColor" />
</svg>
