<svg xmlns="http://www.w3.org/2000/svg" width="156" height="156" viewBox="0 0 156 156" fill="none">
  <g>
    <path fill-rule="evenodd" clip-rule="evenodd"
      d="M128.096 27.9038C130.635 30.4422 130.635 34.5578 128.096 37.0962L37.0962 128.096C34.5578 130.635 30.4422 130.635 27.9038 128.096C25.3654 125.558 25.3654 121.442 27.9038 118.904L118.904 27.9038C121.442 25.3654 125.558 25.3654 128.096 27.9038Z"
      fill="currentColor" />
    <path fill-rule="evenodd" clip-rule="evenodd"
      d="M42.25 32.5C36.8652 32.5 32.5 36.8652 32.5 42.25C32.5 47.6348 36.8652 52 42.25 52C47.6348 52 52 47.6348 52 42.25C52 36.8652 47.6348 32.5 42.25 32.5ZM19.5 42.25C19.5 29.6855 29.6855 19.5 42.25 19.5C54.8145 19.5 65 29.6855 65 42.25C65 54.8145 54.8145 65 42.25 65C29.6855 65 19.5 54.8145 19.5 42.25Z"
      fill="currentColor" />
    <path fill-rule="evenodd" clip-rule="evenodd"
      d="M113.75 104C108.365 104 104 108.365 104 113.75C104 119.135 108.365 123.5 113.75 123.5C119.135 123.5 123.5 119.135 123.5 113.75C123.5 108.365 119.135 104 113.75 104ZM91 113.75C91 101.186 101.186 91 113.75 91C126.314 91 136.5 101.186 136.5 113.75C136.5 126.314 126.314 136.5 113.75 136.5C101.186 136.5 91 126.314 91 113.75Z"
      fill="currentColor" />
  </g>
</svg>
