<svg width="299" height="287" viewBox="0 0 299 287" fill="none" xmlns="http://www.w3.org/2000/svg">
  <path
    d="M138.396 279.79C140.5 281.193 142.971 281.942 145.5 281.942C148.028 281.942 150.5 281.193 152.603 279.79L267.795 202.995C269.246 202.032 270.485 200.782 271.435 199.322C272.385 197.863 273.026 196.224 273.32 194.508C273.614 192.791 273.553 191.033 273.142 189.34C272.732 187.648 271.979 186.057 270.931 184.667L155.739 31.0773C150.914 24.6266 140.086 24.6266 135.261 31.0773L20.0686 184.667C19.0242 186.059 18.2746 187.649 17.8659 189.341C17.4571 191.033 17.3976 192.79 17.6911 194.506C17.9846 196.221 18.6249 197.859 19.5729 199.319C20.5208 200.778 21.7565 202.029 23.2044 202.995L138.396 279.79ZM158.299 245.219V77.1541L242.325 189.197L158.299 245.219ZM132.701 77.1541V245.219L48.6746 189.197L132.701 77.1541Z"
    fill="currentColor" />
</svg>
