<svg width="24" height="24" viewBox="0 0 24 24" fill="none" xmlns="http://www.w3.org/2000/svg">
  <path fill-rule="evenodd" clip-rule="evenodd"
    d="M12 11C11.4477 11 11 11.4477 11 12C11 12.5523 11.4477 13 12 13C12.5523 13 13 12.5523 13 12C13 11.4477 12.5523 11 12 11ZM9 12C9 10.3431 10.3431 9 12 9C13.6569 9 15 10.3431 15 12C15 13.6569 13.6569 15 12 15C10.3431 15 9 13.6569 9 12Z"
    fill="currentColor" />
  <path fill-rule="evenodd" clip-rule="evenodd"
    d="M5.63682 4.22296C6.0274 4.61343 6.0275 5.24659 5.63703 5.63718C3.94979 7.32492 3.00195 9.6137 3.00195 12.0002C3.00195 14.3867 3.94979 16.6754 5.63703 18.3632C6.0275 18.7538 6.0274 19.3869 5.63682 19.7774C5.24623 20.1679 4.61307 20.1678 4.2226 19.7772C2.16042 17.7144 1.00195 14.917 1.00195 12.0002C1.00195 9.08337 2.16042 6.28598 4.2226 4.22318C4.61307 3.83259 5.24623 3.8325 5.63682 4.22296ZM18.3628 4.22296C18.7534 3.8325 19.3866 3.83259 19.777 4.22318C21.8392 6.28598 22.9977 9.08337 22.9977 12.0002C22.9977 14.917 21.8392 17.7144 19.777 19.7772C19.3866 20.1678 18.7534 20.1679 18.3628 19.7774C17.9722 19.3869 17.9721 18.7538 18.3626 18.3632C20.0498 16.6754 20.9977 14.3867 20.9977 12.0002C20.9977 9.6137 20.0498 7.32492 18.3626 5.63718C17.9721 5.24659 17.9722 4.61343 18.3628 4.22296ZM8.46732 7.04346C8.85763 7.4342 8.85727 8.06737 8.46653 8.45768C8.00165 8.92204 7.63285 9.47348 7.38123 10.0805C7.12961 10.6875 7.0001 11.3381 7.0001 11.9952C7.0001 12.6523 7.12961 13.3029 7.38123 13.9099C7.63285 14.5169 8.00165 15.0683 8.46653 15.5327C8.85727 15.923 8.85763 16.5561 8.46732 16.9469C8.07701 17.3376 7.44385 17.338 7.0531 16.9477C6.40227 16.2976 5.88596 15.5255 5.53369 14.6758C5.18142 13.826 5.0001 12.9151 5.0001 11.9952C5.0001 11.0753 5.18142 10.1644 5.53369 9.31459C5.88596 8.46481 6.40227 7.69279 7.0531 7.04268C7.44385 6.65237 8.07701 6.65272 8.46732 7.04346ZM15.5323 7.05346C15.9226 6.66272 16.5558 6.66237 16.9465 7.05268C17.5974 7.70279 18.1137 8.47481 18.466 9.32459C18.8182 10.1744 18.9995 11.0853 18.9995 12.0052C18.9995 12.9251 18.8182 13.836 18.466 14.6858C18.1137 15.5355 17.5974 16.3076 16.9465 16.9577C16.5558 17.348 15.9226 17.3476 15.5323 16.9569C15.142 16.5661 15.1424 15.933 15.5331 15.5427C15.998 15.0783 16.3668 14.5269 16.6184 13.9199C16.87 13.3129 16.9995 12.6623 16.9995 12.0052C16.9995 11.3481 16.87 10.6975 16.6184 10.0905C16.3668 9.48348 15.998 8.93204 15.5331 8.46768C15.1424 8.07737 15.142 7.4442 15.5323 7.05346Z"
    fill="currentColor" />
</svg>
