<svg width="48" height="48" viewBox="0 0 48 48" fill="none" xmlns="http://www.w3.org/2000/svg">
  <path
    d="M24 12C17.3728 12 12 17.3728 12 24C12 27.3141 13.3434 30.3141 15.5147 32.4853L13.2291 34.7709C12.7753 35.2247 13.0969 36 13.7381 36H24C30.6272 36 36 30.6272 36 24C36 17.3728 30.6272 12 24 12Z"
    fill="#FF4500" />
  <path
    d="M26.4414 17.6592C26.6495 18.5414 27.4417 19.1986 28.3877 19.1986C29.492 19.1986 30.3873 18.3033 30.3873 17.1989C30.3873 16.0945 29.492 15.1992 28.3877 15.1992C27.422 15.1992 26.6167 15.8836 26.4292 16.7939C24.812 16.9673 23.5492 18.3389 23.5492 20.0011C23.5492 20.0048 23.5492 20.0077 23.5492 20.0114C21.7905 20.0855 20.1845 20.5861 18.9095 21.3764C18.4361 21.0098 17.8417 20.7914 17.1967 20.7914C15.6489 20.7914 14.3945 22.0458 14.3945 23.5936C14.3945 24.7167 15.0545 25.6842 16.008 26.1314C16.1008 29.3845 19.6455 32.0011 24.0058 32.0011C28.3661 32.0011 31.9155 29.3817 32.0036 26.1258C32.9495 25.6758 33.6039 24.7111 33.6039 23.5945C33.6039 22.0467 32.3495 20.7923 30.8017 20.7923C30.1595 20.7923 29.568 21.0089 29.0955 21.3727C27.8092 20.5767 26.1855 20.0761 24.4089 20.0095C24.4089 20.0067 24.4089 20.0048 24.4089 20.002C24.4089 18.8114 25.2939 17.8233 26.4414 17.6611V17.6592ZM18.797 25.372C18.8439 24.3558 19.5189 23.5758 20.3036 23.5758C21.0883 23.5758 21.6883 24.3998 21.6414 25.4161C21.5945 26.4323 21.0086 26.8017 20.223 26.8017C19.4373 26.8017 18.7502 26.3883 18.797 25.372ZM27.7089 23.5758C28.4945 23.5758 29.1695 24.3558 29.2155 25.372C29.2623 26.3883 28.5742 26.8017 27.7895 26.8017C27.0048 26.8017 26.418 26.4333 26.3711 25.4161C26.3242 24.3998 26.9233 23.5758 27.7089 23.5758ZM26.7752 27.7233C26.9223 27.7383 27.0161 27.8911 26.9589 28.028C26.4761 29.182 25.3361 29.993 24.0058 29.993C22.6755 29.993 21.5364 29.182 21.0527 28.028C20.9955 27.8911 21.0892 27.7383 21.2364 27.7233C22.0989 27.6361 23.0317 27.5883 24.0058 27.5883C24.9798 27.5883 25.9117 27.6361 26.7752 27.7233Z"
    fill="white" />
</svg>
