<svg width="25" height="24" viewBox="0 0 25 24" fill="none" xmlns="http://www.w3.org/2000/svg">
  <path
    d="M3.5 4V9H5.5V5H9.5V3H4.5C4.23478 3 3.98043 3.10536 3.79289 3.29289C3.60536 3.48043 3.5 3.73478 3.5 4ZM21.5 9V4C21.5 3.73478 21.3946 3.48043 21.2071 3.29289C21.0196 3.10536 20.7652 3 20.5 3H15.5V5H19.5V9H21.5ZM19.5 19H15.5V21H20.5C20.7652 21 21.0196 20.8946 21.2071 20.7071C21.3946 20.5196 21.5 20.2652 21.5 20V15H19.5V19ZM9.5 21V19H5.5V15H3.5V20C3.5 20.2652 3.60536 20.5196 3.79289 20.7071C3.98043 20.8946 4.23478 21 4.5 21H9.5ZM2.5 11H22.5V13H2.5V11Z"
    fill="currentColor" />
</svg>
