<svg width="22" height="22" viewBox="0 0 22 22" fill="none" xmlns="http://www.w3.org/2000/svg">
  <path fill-rule="evenodd" clip-rule="evenodd"
    d="M10.084 3.66665C6.54016 3.66665 3.66732 6.53949 3.66732 10.0833C3.66732 13.6271 6.54016 16.5 10.084 16.5C13.6278 16.5 16.5007 13.6271 16.5007 10.0833C16.5007 6.53949 13.6278 3.66665 10.084 3.66665ZM1.83398 10.0833C1.83398 5.52696 5.52764 1.83331 10.084 1.83331C14.6403 1.83331 18.334 5.52696 18.334 10.0833C18.334 14.6397 14.6403 18.3333 10.084 18.3333C5.52764 18.3333 1.83398 14.6397 1.83398 10.0833Z"
    fill="currentColor" />
  <path fill-rule="evenodd" clip-rule="evenodd"
    d="M14.6142 14.6143C14.9722 14.2563 15.5526 14.2563 15.9106 14.6143L19.8981 18.6018C20.256 18.9598 20.256 19.5402 19.8981 19.8982C19.5401 20.2562 18.9597 20.2562 18.6017 19.8982L14.6142 15.9107C14.2562 15.5527 14.2562 14.9723 14.6142 14.6143Z"
    fill="currentColor" />
</svg>
