<svg width="18" height="18" viewBox="0 0 18 18" fill="none" xmlns="http://www.w3.org/2000/svg">
  <path
    d="M5.28735 5.28735H5.29485M7.88383 2.25H5.85C4.58988 2.25 3.95982 2.25 3.47852 2.49524C3.05516 2.71095 2.71095 3.05516 2.49524 3.47852C2.25 3.95982 2.25 4.58988 2.25 5.85V7.88383C2.25 8.43416 2.25 8.70932 2.31217 8.96827C2.36729 9.19785 2.4582 9.41733 2.58156 9.61864C2.7207 9.8457 2.91527 10.0403 3.30442 10.4294L6.82942 13.9544C7.72045 14.8455 8.16597 15.291 8.67971 15.4579C9.13161 15.6047 9.61839 15.6047 10.0703 15.4579C10.584 15.291 11.0296 14.8454 11.9206 13.9544L13.9544 11.9206C14.8454 11.0296 15.291 10.584 15.4579 10.0703C15.6047 9.61839 15.6047 9.13161 15.4579 8.67971C15.291 8.16597 14.8455 7.72045 13.9544 6.82942L10.4294 3.30442C10.0403 2.91527 9.8457 2.7207 9.61864 2.58156C9.41733 2.4582 9.19785 2.36729 8.96827 2.31217C8.70932 2.25 8.43416 2.25 7.88383 2.25ZM5.66235 5.28735C5.66235 5.49446 5.49446 5.66235 5.28735 5.66235C5.08025 5.66235 4.91235 5.49446 4.91235 5.28735C4.91235 5.08025 5.08025 4.91235 5.28735 4.91235C5.49446 4.91235 5.66235 5.08025 5.66235 5.28735Z"
    stroke="currentcolor"
    stroke-width="1.2"
    stroke-linecap="round"
    stroke-linejoin="round"
  />
</svg>
