<svg width="104" height="36" viewBox="0 0 104 36" fill="none" xmlns="http://www.w3.org/2000/svg">
  <path
    d="M51.388 8.10243H44.9882V25.3908H43.4166V8.10243H37.0331V6.77628H51.388V8.10243ZM57.3017 25.6658C56.1189 25.6658 55.0496 25.3747 54.1099 24.7925C53.1702 24.2102 52.4087 23.4016 51.8902 22.3666C51.3556 21.3315 51.0963 20.1671 51.0963 18.8895V18.3396C51.0963 17.0135 51.3556 15.8167 51.874 14.7493C52.3925 13.6819 53.1054 12.841 54.0289 12.2426C54.9524 11.6442 55.9569 11.3208 57.0262 11.3208C58.7112 11.3208 60.0398 11.8868 61.0281 13.035C62.0164 14.1833 62.5025 15.752 62.5025 17.7412V18.5984H52.6031V18.8895C52.6031 20.4582 53.0568 21.7682 53.9479 22.8032C54.8552 23.8544 55.9893 24.372 57.3503 24.372C58.1766 24.372 58.8895 24.2264 59.5213 23.9191C60.1532 23.628 60.7203 23.1429 61.2388 22.4798L62.1947 23.2076C61.0929 24.841 59.4565 25.6658 57.3017 25.6658ZM57.0262 12.6146C55.8759 12.6146 54.9038 13.035 54.1099 13.876C53.316 14.717 52.8462 15.8491 52.6679 17.2722H60.9795V17.1105C60.9309 15.7844 60.5583 14.7008 59.8454 13.8598C59.1325 13.0189 58.1928 12.6146 57.0262 12.6146ZM67.039 24.1132H76.0473V25.407H65.1434V24.2749L73.5522 12.8895H65.4026V11.5633H75.4802V12.7116L67.039 24.1132ZM78.2508 18.2749C78.2508 16.9488 78.51 15.752 79.0284 14.6846C79.5469 13.6173 80.276 12.7925 81.2157 12.1941C82.1554 11.5957 83.2247 11.3046 84.4237 11.3046C86.2707 11.3046 87.7613 11.9515 88.9116 13.2453C90.062 14.5391 90.629 16.2534 90.629 18.3881V18.7116C90.629 20.0539 90.3698 21.2507 89.8513 22.3181C89.3329 23.3854 88.6038 24.2102 87.6641 24.7925C86.7244 25.3747 85.655 25.6658 84.4561 25.6658C82.6253 25.6658 81.1185 25.0189 79.9682 23.7251C78.8178 22.4313 78.2508 20.717 78.2508 18.5822V18.2749ZM79.7899 18.6954C79.7899 20.345 80.2274 21.7035 81.0699 22.7709C81.9286 23.8383 83.0465 24.3558 84.4399 24.3558C85.817 24.3558 86.9512 23.8221 87.8099 22.7709C88.6686 21.7035 89.0898 20.3127 89.0898 18.566V18.2749C89.0898 17.2237 88.8954 16.2534 88.5066 15.3639C88.1177 14.4906 87.5669 13.8113 86.854 13.3261C86.1411 12.841 85.331 12.5984 84.4237 12.5984C83.0627 12.5984 81.9448 13.1321 81.0699 14.1995C80.2112 15.2668 79.7737 16.6739 79.7737 18.4043L79.7899 18.6954ZM102.1 21.8814C102.1 21.1213 101.792 20.5067 101.176 20.0539C100.561 19.6011 99.6535 19.2291 98.4059 18.9704C97.1584 18.7116 96.2187 18.4043 95.5382 18.0809C94.8577 17.7412 94.3555 17.3369 94.0314 16.8518C93.7074 16.3666 93.5292 15.7844 93.5292 15.089C93.5292 13.9892 93.9828 13.0997 94.9063 12.3881C95.8136 11.6766 96.9964 11.3208 98.4221 11.3208C99.9613 11.3208 101.209 11.7089 102.149 12.469C103.088 13.2291 103.558 14.2318 103.558 15.4609H102.019C102.019 14.6523 101.679 13.973 100.998 13.4394C100.318 12.9057 99.4591 12.6307 98.4221 12.6307C97.4176 12.6307 96.6075 12.8571 95.9918 13.2938C95.3762 13.7466 95.0683 14.3288 95.0683 15.0404C95.0683 15.7359 95.3276 16.2695 95.8298 16.6415C96.3321 17.0135 97.2718 17.3693 98.6166 17.6927C99.9613 18.0162 100.966 18.3396 101.646 18.6954C102.311 19.0512 102.813 19.4879 103.137 19.9892C103.461 20.4906 103.623 21.1051 103.623 21.8167C103.623 22.9811 103.153 23.9191 102.213 24.6146C101.274 25.31 100.042 25.6658 98.5193 25.6658C96.8992 25.6658 95.5868 25.2776 94.5985 24.5014C93.594 23.7251 93.0917 22.7385 93.0917 21.5418H94.6309C94.6957 22.4313 95.0683 23.1267 95.765 23.628C96.4617 24.1294 97.3852 24.372 98.5356 24.372C99.6049 24.372 100.464 24.1294 101.128 23.6766C101.776 23.1914 102.1 22.593 102.1 21.8814ZM25.708 26.4421C25.3353 19.8598 17.0399 16.8679 16.246 16.5606C16.2136 16.5445 16.2136 16.5121 16.2298 16.4798L24.7844 7.90836V6.98652C24.7844 6.84097 24.6548 6.71159 24.509 6.71159H8.74455V0L2.92806 1.21294V2.08625H3.2521C3.2521 2.08625 4.67787 2.08625 4.67787 3.50943V6.69542H0.173738C0.0927283 6.69542 0.0117188 6.77628 0.0117188 6.85714V8.87871H4.69407V19.8598C4.69407 23.3046 6.91373 25.6981 10.8022 25.3747C11.6285 25.31 12.39 24.9865 13.0381 24.566C13.3297 24.372 13.5079 24.0647 13.5079 23.7089V22.6253C12.2442 23.4663 11.1748 23.4178 11.1748 23.4178C8.71215 23.4178 8.76075 20.2965 8.76075 20.2965V8.87871H20.1021L11.9363 17.0943C11.9201 18.1779 11.9039 19.0189 11.9039 19.035C11.9039 19.0674 11.9201 19.0836 11.9525 19.0836C19.4378 20.345 21.4631 25.1806 21.4631 26.5876C21.4631 26.5876 22.2731 33.4286 15.4197 33.8976C15.4197 33.8976 10.9318 34.0916 10.1379 32.2965C10.1055 32.2318 10.1379 32.1671 10.2027 32.1348C10.948 31.7952 11.4503 31.1321 11.4503 30.2426C11.4503 28.9164 10.6402 27.8329 8.93897 27.8329C7.56181 27.8329 6.42768 28.9164 6.42768 30.2426C6.42768 30.2426 5.7796 36 15.4035 35.8383C26.3884 35.6442 25.708 26.4421 25.708 26.4421Z"
    fill="currentcolor"
  />
</svg>
