<svg width="22" height="22" viewBox="0 0 22 22" fill="none" xmlns="http://www.w3.org/2000/svg">
  <path fill-rule="evenodd" clip-rule="evenodd"
    d="M1.83398 5.49998C1.83398 4.99372 2.24439 4.58331 2.75065 4.58331H19.2507C19.7569 4.58331 20.1673 4.99372 20.1673 5.49998C20.1673 6.00624 19.7569 6.41665 19.2507 6.41665H2.75065C2.24439 6.41665 1.83398 6.00624 1.83398 5.49998Z"
    fill="currentColor" />
  <path fill-rule="evenodd" clip-rule="evenodd"
    d="M9.16602 2.75002C8.9229 2.75002 8.68974 2.8466 8.51783 3.01851C8.34593 3.19041 8.24935 3.42357 8.24935 3.66669V5.50002C8.24935 6.00628 7.83894 6.41669 7.33268 6.41669C6.82642 6.41669 6.41602 6.00628 6.41602 5.50002V3.66669C6.41602 2.93734 6.70575 2.23787 7.22147 1.72214C7.7372 1.20642 8.43667 0.916687 9.16602 0.916687H12.8327C13.562 0.916687 14.2615 1.20642 14.7772 1.72214C15.293 2.23787 15.5827 2.93734 15.5827 3.66669V5.50002C15.5827 6.00628 15.1723 6.41669 14.666 6.41669C14.1598 6.41669 13.7493 6.00628 13.7493 5.50002V3.66669C13.7493 3.42357 13.6528 3.19041 13.4809 3.01851C13.309 2.8466 13.0758 2.75002 12.8327 2.75002H9.16602ZM4.58268 4.58335C5.08894 4.58335 5.49935 4.99376 5.49935 5.50002V18.3334C5.49935 18.5765 5.59593 18.8096 5.76783 18.9815C5.93974 19.1534 6.1729 19.25 6.41602 19.25H15.5827C15.8258 19.25 16.059 19.1534 16.2309 18.9815C16.4028 18.8096 16.4993 18.5765 16.4993 18.3334V5.50002C16.4993 4.99376 16.9098 4.58335 17.416 4.58335C17.9223 4.58335 18.3327 4.99376 18.3327 5.50002V18.3334C18.3327 19.0627 18.043 19.7622 17.5272 20.2779C17.0115 20.7936 16.312 21.0834 15.5827 21.0834H6.41602C5.68667 21.0834 4.9872 20.7936 4.47147 20.2779C3.95575 19.7622 3.66602 19.0627 3.66602 18.3334V5.50002C3.66602 4.99376 4.07642 4.58335 4.58268 4.58335Z"
    fill="currentColor" />
  <path fill-rule="evenodd" clip-rule="evenodd"
    d="M9.16667 9.16669C9.67293 9.16669 10.0833 9.57709 10.0833 10.0834V15.5834C10.0833 16.0896 9.67293 16.5 9.16667 16.5C8.66041 16.5 8.25 16.0896 8.25 15.5834V10.0834C8.25 9.57709 8.66041 9.16669 9.16667 9.16669Z"
    fill="currentColor" />
  <path fill-rule="evenodd" clip-rule="evenodd"
    d="M12.8327 9.16669C13.3389 9.16669 13.7493 9.57709 13.7493 10.0834V15.5834C13.7493 16.0896 13.3389 16.5 12.8327 16.5C12.3264 16.5 11.916 16.0896 11.916 15.5834V10.0834C11.916 9.57709 12.3264 9.16669 12.8327 9.16669Z"
    fill="currentColor" />
</svg>
