<svg width="48" height="48" viewBox="0 0 48 48" fill="none" xmlns="http://www.w3.org/2000/svg">
  <path
    d="M14.6667 34.5C14.6667 29.9897 18.3231 26.3333 22.8334 26.3333C23.2295 26.3333 23.619 26.3615 24.0001 26.416M30.9967 31C32.1633 29.8333 33.33 29.372 33.33 28.0833C33.33 26.7947 32.2853 25.75 30.9966 25.75C29.9094 25.75 28.9958 26.4936 28.7368 27.5M30.9967 34.5H31.0083M27.5001 18.1667C27.5001 20.744 25.4107 22.8333 22.8334 22.8333C20.2561 22.8333 18.1667 20.744 18.1667 18.1667C18.1667 15.5893 20.2561 13.5 22.8334 13.5C25.4107 13.5 27.5001 15.5893 27.5001 18.1667Z"
    stroke="#4A5568" stroke-width="2" stroke-linecap="round" stroke-linejoin="round" />
</svg>
