<svg width="28" height="28" viewBox="0 0 28 28" fill="none" xmlns="http://www.w3.org/2000/svg">
  <path
    d="M4.66797 24.5C4.66797 19.9897 8.32431 16.3333 12.8346 16.3333C13.2307 16.3333 13.6203 16.3615 14.0013 16.416M20.9979 21C22.1646 19.8333 23.3312 19.372 23.3312 18.0833C23.3312 16.7947 22.2865 15.75 20.9979 15.75C19.9106 15.75 18.9971 16.4936 18.738 17.5M20.9979 24.5H21.0096M17.5013 8.16667C17.5013 10.744 15.412 12.8333 12.8346 12.8333C10.2573 12.8333 8.16797 10.744 8.16797 8.16667C8.16797 5.58934 10.2573 3.5 12.8346 3.5C15.412 3.5 17.5013 5.58934 17.5013 8.16667Z"
    stroke="currentcolor"
    stroke-width="2"
    stroke-linecap="round"
    stroke-linejoin="round"
  />
</svg>
