<svg width="28" height="28" viewBox="0 0 28 28" fill="none" xmlns="http://www.w3.org/2000/svg">
  <g clip-path="url(#clip0_1555_16387)">
    <g clip-path="url(#clip1_1555_16387)">
      <g clip-path="url(#clip2_1555_16387)">
        <path
          d="M18.667 11.6666H19.8337V14H15.167V6.99998H17.5003L14.0003 2.33331L10.5003 6.99998H12.8337V16.3333H8.16699V13.6768C8.86233 13.272 9.33366 12.5276 9.33366 11.6666C9.33366 11.0478 9.08783 10.4543 8.65024 10.0167C8.21266 9.57915 7.61916 9.33331 7.00033 9.33331C6.38149 9.33331 5.78799 9.57915 5.35041 10.0167C4.91282 10.4543 4.66699 11.0478 4.66699 11.6666C4.66699 12.5276 5.13833 13.272 5.83366 13.6768V16.3333C5.83366 17.6201 6.88016 18.6666 8.16699 18.6666H12.8337V21.3231C12.4797 21.5261 12.1855 21.8188 11.9807 22.1717C11.7759 22.5246 11.6677 22.9253 11.667 23.3333C11.667 23.9522 11.9128 24.5456 12.3504 24.9832C12.788 25.4208 13.3815 25.6666 14.0003 25.6666C14.6192 25.6666 15.2127 25.4208 15.6502 24.9832C16.0878 24.5456 16.3337 23.9522 16.3337 23.3333C16.3337 22.4723 15.8623 21.728 15.167 21.3231V16.3333H19.8337C21.1205 16.3333 22.167 15.2868 22.167 14V11.6666H23.3337V6.99998H18.667V11.6666Z"
          fill="currentcolor"
        />
      </g>
    </g>
  </g>
  <defs>
    <clipPath id="clip0_1555_16387">
      <rect width="28" height="28" fill="white" />
    </clipPath>
    <clipPath id="clip1_1555_16387">
      <rect width="28" height="28" fill="white" />
    </clipPath>
    <clipPath id="clip2_1555_16387">
      <rect width="28" height="28" fill="white" />
    </clipPath>
  </defs>
</svg>
