<svg width="25" height="24" viewBox="0 0 25 24" fill="none" xmlns="http://www.w3.org/2000/svg">
  <path
    d="M20.5 3H4.5C3.397 3 2.5 3.897 2.5 5V19C2.5 20.103 3.397 21 4.5 21H20.5C21.603 21 22.5 20.103 22.5 19V5C22.5 3.897 21.603 3 20.5 3ZM4.5 19V7H20.5L20.501 19H4.5Z"
    fill="currentColor" />
  <path
    d="M16.2109 10.707L14.7969 9.29297L12.5039 11.586L10.2109 9.29297L8.79688 10.707L11.0899 13L8.79688 15.293L10.2109 16.707L12.5039 14.414L14.7969 16.707L16.2109 15.293L13.9179 13L16.2109 10.707Z"
    fill="currentColor" />
</svg>
