<svg width="28" height="28" viewBox="0 0 28 28" fill="none" xmlns="http://www.w3.org/2000/svg">
<g id="Group 40429">
<g id="Group 40428">
<g id="Group 39769">
<path id="Shape" fill-rule="evenodd" clip-rule="evenodd" d="M27.4398 14.3177C27.4398 13.325 27.3507 12.3705 27.1852 11.4541H14V16.8695H21.5344C21.2099 18.6194 20.2235 20.1021 18.7408 21.0949V24.6075H23.2653C25.9125 22.1703 27.4398 18.5813 27.4398 14.3177Z" fill="#4285F4"/>
<path id="Shape_2" fill-rule="evenodd" clip-rule="evenodd" d="M14.0009 28C17.7809 28 20.9499 26.7464 23.2663 24.6082L18.7418 21.0955C17.4882 21.9355 15.8846 22.4319 14.0009 22.4319C10.3546 22.4319 7.26832 19.9692 6.16743 16.6602H1.49023V20.2874C3.79383 24.8628 8.5283 28 14.0009 28Z" fill="#34A853"/>
<path id="Shape_3" fill-rule="evenodd" clip-rule="evenodd" d="M6.16627 16.66C5.88627 15.82 5.72718 14.9228 5.72718 14.0001C5.72718 13.0774 5.88627 12.1801 6.16627 11.3401V7.71289H1.48907C0.5409 9.60286 0 11.741 0 14.0001C0 16.2591 0.5409 18.3973 1.48907 20.2872L6.16627 16.66Z" fill="#FBBC05"/>
<path id="Shape_4" fill-rule="evenodd" clip-rule="evenodd" d="M14.0009 5.56809C16.0564 5.56809 17.9018 6.27445 19.3527 7.6617L23.3681 3.64631C20.9436 1.38725 17.7745 0 14.0009 0C8.5283 0 3.79383 3.13722 1.49023 7.7126L6.16743 11.3398C7.26832 8.03078 10.3546 5.56809 14.0009 5.56809Z" fill="#EA4335"/>
</g>
</g>
</g>
</svg>
